<svg width="26" height="18" viewBox="0 0 26 18" fill="none" xmlns="http://www.w3.org/2000/svg">
<path fill-rule="evenodd" clip-rule="evenodd" d="M4.58332 7.78881L24.3413 7.78881C25.0102 7.78881 25.553 8.33162 25.553 9.00044C25.553 9.66805 25.0102 10.2121 24.3413 10.2121L4.58332 10.2121L9.77028 15.3991C10.244 15.8716 10.244 16.6398 9.77028 17.1123C9.29774 17.5848 8.52957 17.5848 8.05703 17.1123L0.801817 9.85706L0.799377 9.85586C0.685484 9.73954 0.598251 9.60747 0.538881 9.46571L0.537661 9.46206C0.478291 9.31909 0.44681 9.16401 0.44681 9.00044C0.44681 8.83687 0.478291 8.68056 0.537661 8.53759L0.538881 8.53397C0.553421 8.49883 0.570366 8.46369 0.588539 8.42977L0.607952 8.39584L0.627327 8.36312L0.650364 8.32677L0.672142 8.29527L0.693958 8.26498L0.718214 8.23468L0.742434 8.20562L0.769094 8.17654L0.795753 8.14866L0.801817 8.14261L8.05703 0.887361C8.52957 0.414825 9.29774 0.414825 9.77028 0.887361C10.244 1.3599 10.244 2.12807 9.77028 2.60061L4.58332 7.78881Z" fill="white"/>
</svg>
