<svg width="22" height="22" viewBox="0 0 22 22" fill="none" xmlns="http://www.w3.org/2000/svg">
<path fill-rule="evenodd" clip-rule="evenodd" d="M6.4731 1.59893C6.4731 1.11928 6.08429 0.730469 5.60464 0.730469C5.60458 0.730469 5.60452 0.730469 5.60442 0.730469C5.1248 0.730469 4.73596 1.11928 4.73596 1.59893C4.73596 2.39246 4.73596 3.55972 4.73596 4.35325C4.73596 4.83287 5.1248 5.22171 5.60442 5.22171C5.60452 5.22171 5.60458 5.22171 5.60464 5.22171C6.08429 5.22171 6.4731 4.83287 6.4731 4.35325C6.4731 3.55972 6.4731 2.39246 6.4731 1.59893Z" stroke="#4F4F4F" stroke-miterlimit="1.5" stroke-linecap="round" stroke-linejoin="round"/>
<path fill-rule="evenodd" clip-rule="evenodd" d="M17.6597 1.59893C17.6597 1.11928 17.2709 0.730469 16.7913 0.730469C16.7912 0.730469 16.7912 0.730469 16.7911 0.730469C16.3114 0.730469 15.9226 1.11928 15.9226 1.59893C15.9226 2.39246 15.9226 3.55972 15.9226 4.35325C15.9226 4.83287 16.3114 5.22171 16.7911 5.22171C16.7912 5.22171 16.7912 5.22171 16.7913 5.22171C17.2709 5.22171 17.6597 4.83287 17.6597 4.35325C17.6597 3.55972 17.6597 2.39246 17.6597 1.59893Z" stroke="#4F4F4F" stroke-miterlimit="1.5" stroke-linecap="round" stroke-linejoin="round"/>
<path d="M15.9345 2.84302H6.54529" stroke="#4F4F4F" stroke-miterlimit="1.5" stroke-linecap="round" stroke-linejoin="round"/>
<path d="M4.77999 2.84302H1.52006C1.20518 2.84302 0.949951 3.09829 0.949951 3.41316V20.3496C0.949951 20.6645 1.20518 20.9197 1.52006 20.9197H20.4736C20.7885 20.9197 21.0437 20.6645 21.0437 20.3496V3.41316C21.0437 3.09829 20.7885 2.84302 20.4736 2.84302H17.6535" stroke="#4F4F4F" stroke-miterlimit="1.5" stroke-linecap="round" stroke-linejoin="round"/>
<path d="M10.5331 8.39282H7.84058V11.0853H10.5331V8.39282Z" stroke="#4F4F4F" stroke-width="0.5" stroke-miterlimit="1.5" stroke-linecap="round" stroke-linejoin="round"/>
<path d="M14.6588 8.39282H11.9663V11.0853H14.6588V8.39282Z" stroke="#4F4F4F" stroke-width="0.5" stroke-miterlimit="1.5" stroke-linecap="round" stroke-linejoin="round"/>
<path d="M18.7932 8.39282H16.1007V11.0853H18.7932V8.39282Z" stroke="#4F4F4F" stroke-width="0.5" stroke-miterlimit="1.5" stroke-linecap="round" stroke-linejoin="round"/>
<path d="M10.5273 12.4419H7.83484V15.1344H10.5273V12.4419Z" stroke="#4F4F4F" stroke-width="0.5" stroke-miterlimit="1.5" stroke-linecap="round" stroke-linejoin="round"/>
<path d="M6.39293 12.4419H3.70044V15.1344H6.39293V12.4419Z" stroke="#4F4F4F" stroke-width="0.5" stroke-miterlimit="1.5" stroke-linecap="round" stroke-linejoin="round"/>
<path d="M14.6578 12.4419H11.9653V15.1344H14.6578V12.4419Z" stroke="#4F4F4F" stroke-width="0.5" stroke-miterlimit="1.5" stroke-linecap="round" stroke-linejoin="round"/>
<path d="M18.7015 12.4419H16.009V15.1344H18.7015V12.4419Z" stroke="#4F4F4F" stroke-width="0.5" stroke-miterlimit="1.5" stroke-linecap="round" stroke-linejoin="round"/>
<path d="M10.5273 16.4001H7.83484V19.0926H10.5273V16.4001Z" stroke="#4F4F4F" stroke-width="0.5" stroke-miterlimit="1.5" stroke-linecap="round" stroke-linejoin="round"/>
<path d="M6.39293 16.4001H3.70044V19.0926H6.39293V16.4001Z" stroke="#4F4F4F" stroke-width="0.5" stroke-miterlimit="1.5" stroke-linecap="round" stroke-linejoin="round"/>
<path d="M14.6578 16.4001H11.9653V19.0926H14.6578V16.4001Z" stroke="#4F4F4F" stroke-width="0.5" stroke-miterlimit="1.5" stroke-linecap="round" stroke-linejoin="round"/>
<path d="M0.949951 6.75586H21.0437" stroke="#4F4F4F" stroke-miterlimit="1.5" stroke-linecap="round" stroke-linejoin="round"/>
</svg>
