<svg width="25" height="26" viewBox="0 0 25 26" fill="none" xmlns="http://www.w3.org/2000/svg">
<path d="M9.2862 25.5C8.50935 25.5 7.77356 25.1375 7.30209 24.5124L0.921137 16.0813C0.723856 15.8209 0.579829 15.5242 0.497288 15.2081C0.414748 14.892 0.395313 14.5628 0.440095 14.2392C0.484877 13.9156 0.592997 13.604 0.758274 13.3222C0.923552 13.0405 1.14275 12.794 1.40332 12.597C1.66381 12.3992 1.96078 12.2547 2.27721 12.1718C2.59364 12.089 2.9233 12.0694 3.24732 12.1142C3.57133 12.159 3.88332 12.2673 4.1654 12.4329C4.44748 12.5985 4.69411 12.8181 4.89115 13.0792L9.08976 18.6226L19.6461 1.67099C19.9962 1.1113 20.554 0.713307 21.1971 0.564323C21.8403 0.41534 22.5162 0.527526 23.0768 0.876274C24.243 1.60134 24.6019 3.1372 23.8733 4.30517L11.4007 24.3249C11.1878 24.6682 10.8943 24.9543 10.5457 25.1585C10.1972 25.3626 9.80406 25.4786 9.4005 25.4964C9.36121 25.5 9.32549 25.5 9.2862 25.5Z" fill="#003595"/>
</svg>
