<svg width="13" height="12" viewBox="0 0 13 12" fill="none" xmlns="http://www.w3.org/2000/svg">
<path fill-rule="evenodd" clip-rule="evenodd" d="M11.8208 11.8628C12.0011 12.0459 12.2933 12.0459 12.4735 11.8628C12.6538 11.6796 12.6538 11.3826 12.4735 11.1995L7.4527 6.0973L12.6648 0.800773C12.845 0.617613 12.845 0.320652 12.6648 0.137492C12.4846 -0.045668 12.1923 -0.0456678 12.0121 0.137492L6.79999 5.43402L1.58788 0.137492C1.40764 -0.0456678 1.11541 -0.045668 0.935168 0.137492C0.754928 0.320652 0.754928 0.617613 0.935168 0.800773L6.14728 6.0973L1.12643 11.1995C0.946187 11.3826 0.946187 11.6796 1.12643 11.8628C1.30667 12.0459 1.5989 12.0459 1.77914 11.8628L6.79999 6.76058L11.8208 11.8628Z" fill="#003595"/>
</svg>
