<svg width="29" height="26" viewBox="0 0 29 26" fill="none" xmlns="http://www.w3.org/2000/svg">
<path fill-rule="evenodd" clip-rule="evenodd" d="M15.6791 20.6086H1.96216C1.41016 20.6086 0.962158 21.0566 0.962158 21.6086C0.962158 22.1606 1.41016 22.6086 1.96216 22.6086H15.6791C16.1141 24.1426 17.5271 25.2686 19.2001 25.2686C20.8731 25.2686 22.2851 24.1426 22.7211 22.6086H27.8621C28.4141 22.6086 28.8621 22.1606 28.8621 21.6086C28.8621 21.0566 28.4141 20.6086 27.8621 20.6086H22.7211C22.2851 19.0746 20.8731 17.9497 19.2001 17.9497C17.5271 17.9497 16.1141 19.0746 15.6791 20.6086ZM19.2001 19.9496C20.1161 19.9496 20.8591 20.6926 20.8591 21.6086C20.8591 22.5246 20.1161 23.2686 19.2001 23.2686C18.2841 23.2686 17.5401 22.5246 17.5401 21.6086C17.5401 20.6926 18.2841 19.9496 19.2001 19.9496ZM7.10314 11.9997H1.96216C1.41016 11.9997 0.962158 12.4477 0.962158 12.9997C0.962158 13.5517 1.41016 13.9997 1.96216 13.9997H7.10314C7.53814 15.5337 8.95113 16.6597 10.6241 16.6597C12.2971 16.6597 13.7091 15.5337 14.1451 13.9997H27.8621C28.4141 13.9997 28.8621 13.5517 28.8621 12.9997C28.8621 12.4477 28.4141 11.9997 27.8621 11.9997H14.1451C13.7091 10.4657 12.2971 9.34067 10.6241 9.34067C8.95113 9.34067 7.53814 10.4657 7.10314 11.9997ZM10.6241 14.6597C9.70813 14.6597 8.96513 13.9157 8.96513 12.9997C8.96513 12.0837 9.70813 11.3407 10.6241 11.3407C11.5401 11.3407 12.2831 12.0837 12.2831 12.9997C12.2831 13.9157 11.5401 14.6597 10.6241 14.6597ZM15.6791 3.36468H1.96216C1.41016 3.36468 0.962158 3.81268 0.962158 4.36468C0.962158 4.91668 1.41016 5.36468 1.96216 5.36468H15.6791C16.1141 6.89867 17.5271 8.02367 19.2001 8.02367C20.8731 8.02367 22.2851 6.89867 22.7211 5.36468H27.8621C28.4141 5.36468 28.8621 4.91668 28.8621 4.36468C28.8621 3.81268 28.4141 3.36468 27.8621 3.36468H22.7211C22.2851 1.83069 20.8731 0.705688 19.2001 0.705688C17.5271 0.705688 16.1141 1.83069 15.6791 3.36468ZM19.2001 2.70568C20.1161 2.70568 20.8591 3.44868 20.8591 4.36468C20.8591 5.28068 20.1161 6.02368 19.2001 6.02368C18.2841 6.02368 17.5401 5.28068 17.5401 4.36468C17.5401 3.44868 18.2841 2.70568 19.2001 2.70568Z" fill="#00339B"/>
</svg>
