<svg width="20" height="20" viewBox="0 0 20 20" fill="none" xmlns="http://www.w3.org/2000/svg">
<g clip-path="url(#clip0_830_5744)">
<path d="M10.0034 20C8.02491 20 6.09086 19.4133 4.44581 18.3141C2.80076 17.2149 1.5186 15.6526 0.761467 13.8247C0.00433406 11.9968 -0.193766 9.98547 0.192217 8.045C0.5782 6.10453 1.53093 4.32209 2.92993 2.92309C4.32893 1.52409 6.11136 0.571363 8.05183 0.18538C9.9923 -0.200603 12.0036 -0.00249994 13.8315 0.754633C15.6594 1.51177 17.2217 2.79393 18.3209 4.43898C19.4201 6.08403 20.0068 8.01807 20.0068 9.99656C20.0032 12.6485 18.9481 15.1908 17.0729 17.0661C15.1977 18.9413 12.6554 19.9964 10.0034 20ZM10.0034 0.698493C8.16575 0.698493 6.36938 1.24342 4.84143 2.26436C3.31349 3.2853 2.1226 4.7364 1.41937 6.43416C0.716132 8.13192 0.532134 10.0001 0.89064 11.8024C1.24915 13.6047 2.13406 15.2603 3.43347 16.5597C4.73287 17.8591 6.38842 18.744 8.19075 19.1025C9.99309 19.461 11.8613 19.277 13.559 18.5738C15.2568 17.8706 16.7079 16.6797 17.7288 15.1517C18.7498 13.6238 19.2947 11.8274 19.2947 9.98978C19.2911 7.52668 18.311 5.16549 16.5694 3.42381C14.8277 1.68213 12.4665 0.702081 10.0034 0.698493Z" fill="#4F4F4F" stroke="#4F4F4F" stroke-width="0.2"/>
<path d="M4.80847 10.7765C4.60086 10.7728 4.39591 10.729 4.20488 10.6476C3.76564 10.4533 3.36963 10.1733 3.04005 9.82388C2.71047 9.47451 2.45397 9.06285 2.28558 8.61304C2.1677 8.26625 2.11482 7.90069 2.1296 7.53471C2.14414 6.67361 1.93624 5.82332 1.526 5.06608L2.14994 4.72698C2.38344 5.16897 2.56114 5.63826 2.67893 6.12406C2.78686 6.56799 2.83925 7.02361 2.83492 7.48045C2.8235 7.77034 2.86486 8.05989 2.957 8.33498C3.22936 9.05251 3.7724 9.63452 4.46937 9.95587C4.59861 10.023 4.74605 10.0468 4.88985 10.0237C4.92239 9.99511 4.95193 9.9633 4.97802 9.92874C5.03439 9.83711 5.10837 9.75756 5.19567 9.69469C5.28298 9.63183 5.38188 9.58691 5.48667 9.56251C5.70378 9.52056 5.92871 9.55406 6.12417 9.65746C6.07352 9.37008 5.95235 9.09977 5.77151 8.87076C5.63321 8.71344 5.47339 8.57645 5.29677 8.46383C4.95729 8.26311 4.69108 7.95886 4.53719 7.59574C4.47734 7.49456 4.43866 7.38228 4.42351 7.2657C4.40835 7.14912 4.41703 7.03067 4.44903 6.91755C4.62536 6.44959 5.18148 6.41568 5.72403 6.38856C6.26659 6.36143 6.80915 6.32074 7.08043 5.97486C7.10131 5.95629 7.11767 5.93319 7.12825 5.90733C7.13883 5.88147 7.14335 5.85353 7.14146 5.82565C7.15894 5.62137 7.22903 5.4251 7.34492 5.25597C7.64563 4.81846 8.07801 4.48823 8.57924 4.31328C8.87765 4.17764 9.06076 4.08947 9.0811 3.98096C9.07241 3.90067 9.04944 3.82259 9.01329 3.75037C9.01329 3.75037 8.8573 3.68933 8.76913 3.66899C8.54824 3.64227 8.34277 3.54193 8.18589 3.38415C8.15069 3.34634 8.11892 3.30549 8.09094 3.26207C8.05025 3.22138 8.01634 3.2146 7.90104 3.2146C7.72948 3.22849 7.55862 3.18036 7.41952 3.07896C7.14146 2.84837 7.19572 2.51606 7.24319 2.21765C7.29434 1.96476 7.29434 1.70418 7.24319 1.45129C7.20137 1.26049 7.12055 1.08039 7.00582 0.922297L7.58229 0.515381C7.75089 0.749973 7.87291 1.01473 7.94173 1.2953C8.00762 1.63576 8.00762 1.9857 7.94173 2.32616C7.93797 2.38714 7.93797 2.44829 7.94173 2.50927C8.18672 2.4868 8.43061 2.56242 8.61993 2.71952C8.6721 2.76758 8.71771 2.8223 8.75557 2.88228C8.8214 2.93156 8.8982 2.96414 8.97938 2.97723C9.11559 2.99312 9.24674 3.03833 9.36382 3.10974C9.48089 3.18116 9.58111 3.27709 9.65757 3.39093C9.77696 3.59602 9.83134 3.83249 9.81356 4.06913C9.72539 4.55065 9.29135 4.74732 8.90477 4.92366C8.53459 5.05244 8.21114 5.28854 7.97564 5.60185C7.91787 5.6809 7.88482 5.7753 7.8807 5.87313C7.87101 6.06255 7.79955 6.24359 7.67724 6.38856C7.43165 6.62855 7.13756 6.81323 6.81471 6.9302C6.49187 7.04717 6.14774 7.09373 5.80542 7.06675C5.57573 7.06196 5.34676 7.09402 5.12722 7.1617C5.12722 7.1617 5.18148 7.2363 5.21539 7.31769C5.32204 7.55207 5.50008 7.74672 5.72403 7.87381C5.95444 8.0218 6.1623 8.20225 6.34119 8.40958C6.7189 8.86375 6.90174 9.44883 6.84984 10.0372C6.8414 10.1205 6.8145 10.2009 6.77109 10.2724C6.72768 10.344 6.66886 10.405 6.59891 10.4509C6.49003 10.5076 6.36619 10.529 6.24463 10.5119C6.12306 10.4949 6.00983 10.4404 5.92071 10.356C5.79864 10.2746 5.71047 10.2271 5.63587 10.2407C5.56127 10.2543 5.60196 10.2407 5.53414 10.3424C5.45079 10.4663 5.33921 10.5686 5.20861 10.6408C5.08796 10.7173 4.95076 10.7638 4.80847 10.7765Z" fill="#4F4F4F" stroke="#4F4F4F" stroke-width="0.2"/>
<path d="M9.2167 19.9322C8.89888 19.9062 8.59742 19.7804 8.35539 19.5728C7.75858 19.098 7.72467 18.4199 7.67719 17.0838C7.67719 16.6701 7.62972 16.1818 7.58225 15.5986C7.45339 13.8963 7.29062 13.6182 7.0736 13.408C6.90805 13.2532 6.7178 13.1271 6.5107 13.035C5.93423 12.7434 5.50697 12.411 6.01561 11.2852L6.10378 11.1699C6.34187 10.9504 6.6239 10.7839 6.93118 10.6816C7.44497 10.5023 8.00437 10.5023 8.51816 10.6816C8.7097 10.75 8.8868 10.8535 9.04037 10.9868C9.14888 11.0682 9.2913 11.1835 9.53545 11.3463C9.92205 11.6653 10.3732 11.8967 10.8579 12.0245C10.9739 12.0516 11.0946 12.0516 11.2106 12.0245C11.4317 11.9597 11.659 11.9188 11.8888 11.9024C13.0824 11.8074 13.7606 11.9838 13.9234 12.4382C13.9483 12.5647 13.9367 12.6956 13.8898 12.8158C13.843 12.9359 13.7629 13.0401 13.6589 13.1164C13.5025 13.2657 13.3719 13.4398 13.2723 13.6318C13.1374 13.9146 13.0811 14.2285 13.1095 14.5406C13.1552 14.9294 13.0482 15.3208 12.8111 15.6325C12.639 15.8364 12.3974 15.9693 12.1329 16.0055C11.9889 16.0206 11.8547 16.0853 11.7532 16.1886C11.5444 16.4045 11.4132 16.6836 11.3801 16.9821C11.3581 17.1907 11.2894 17.3918 11.179 17.5702C11.0686 17.7487 10.9195 17.9 10.7426 18.0129C10.6664 18.059 10.5871 18.0998 10.5053 18.135C10.3371 18.2084 10.1759 18.2969 10.0238 18.3995C9.94352 18.4716 9.87287 18.5536 9.81351 18.6437C9.74874 18.7811 9.73203 18.9364 9.76604 19.0845C9.80202 19.2023 9.80525 19.3276 9.77538 19.4471C9.74551 19.5666 9.68367 19.6757 9.59649 19.7627C9.49398 19.8624 9.35938 19.9225 9.2167 19.9322ZM6.61243 11.6515C6.37506 12.1804 6.42931 12.2076 6.8091 12.4043C7.08026 12.5289 7.3298 12.6961 7.54834 12.8993C7.94169 13.2859 8.13158 13.7403 8.26722 15.5443C8.3147 16.1343 8.34183 16.6294 8.36217 17.0431C8.42999 18.3317 8.4639 18.7522 8.79622 19.0234C8.87445 19.0872 8.96119 19.1397 9.05393 19.1794C9.0133 18.8926 9.06559 18.6002 9.20313 18.3452C9.31364 18.1771 9.44849 18.0262 9.60327 17.8976C9.7959 17.7661 10.0002 17.6526 10.2136 17.5585L10.4035 17.4636C10.5731 17.3686 10.6138 17.2127 10.6884 16.8871C10.7538 16.4521 10.9584 16.0499 11.2716 15.741C11.4665 15.5472 11.7186 15.4212 11.9905 15.3815C12.043 15.3771 12.094 15.3623 12.1406 15.3378C12.1872 15.3134 12.2284 15.2798 12.2618 15.2391C12.3907 15.0831 12.3974 14.9271 12.3907 14.622C12.3641 14.1949 12.4458 13.768 12.628 13.3809C12.763 13.1291 12.937 12.9002 13.1435 12.7027C12.7402 12.655 12.3327 12.655 11.9295 12.7027C11.7369 12.719 11.5462 12.7531 11.3598 12.8044C11.1583 12.8679 10.9453 12.8864 10.7359 12.8586C10.1335 12.7153 9.57351 12.4318 9.1014 12.0312C8.83691 11.8481 8.68092 11.7261 8.57241 11.6379C8.47805 11.5513 8.36738 11.4845 8.24688 11.4412C7.88211 11.3156 7.48584 11.3156 7.12107 11.4412C6.9407 11.4815 6.76863 11.5527 6.61243 11.6515Z" fill="#4F4F4F" stroke="#4F4F4F" stroke-width="0.2"/>
<path d="M11.882 3.41131C11.8122 3.42106 11.7415 3.42106 11.6717 3.41131C11.5386 3.34576 11.4223 3.25052 11.3318 3.13295C11.2412 3.01537 11.1789 2.87858 11.1495 2.73312C11.1132 2.54666 11.0237 2.37471 10.8918 2.23803C10.8382 2.19112 10.7723 2.16053 10.7019 2.14987C10.4239 2.1024 10.2814 1.96675 10.1458 1.60731C10.0578 1.31759 10.0302 1.01293 10.0644 0.712092C10.0644 0.630709 10.0644 0.542548 10.0644 0.467947H10.7426C10.7426 0.556112 10.7426 0.651057 10.7426 0.746004C10.71 0.945878 10.71 1.14972 10.7426 1.3496C10.7562 1.3867 10.7721 1.42294 10.7901 1.45811C10.9613 1.49153 11.1219 1.566 11.258 1.67513C11.5097 1.89284 11.6855 2.18501 11.7599 2.50931C11.7867 2.59785 11.8208 2.68404 11.8616 2.76703C11.9839 2.70765 12.1017 2.63966 12.2143 2.56357L12.3093 2.49575C12.3527 2.47651 12.3919 2.44885 12.4245 2.41437C12.4387 2.39333 12.4501 2.37053 12.4585 2.34655C12.4585 2.29907 12.5263 2.23125 12.5873 2.12952C12.6117 2.08565 12.6439 2.04659 12.6823 2.01423C12.6823 2.01423 12.6823 1.95997 12.6348 1.92606C12.2753 1.1597 12.2414 1.07832 11.5565 0.922337L11.7124 0.244141C12.6687 0.461163 12.8586 0.746006 13.2519 1.60053C13.2698 1.60419 13.2883 1.60419 13.3062 1.60053C13.4283 1.67513 13.6521 1.80399 13.6249 2.06848C13.6205 2.19381 13.5706 2.31322 13.4844 2.40436C13.3983 2.49549 13.2819 2.5521 13.157 2.56357L13.0824 2.69243C13.0013 2.85869 12.8711 2.99601 12.7094 3.08578L12.6144 3.14682C12.397 3.2963 12.1448 3.38738 11.882 3.41131Z" fill="#4F4F4F" stroke="#4F4F4F" stroke-width="0.2"/>
<path d="M18.1282 15.8291L17.4975 15.4968C17.7347 15.0646 17.8845 14.5898 17.9383 14.0997C17.9447 13.9845 17.9447 13.8691 17.9383 13.7538C17.9262 13.5279 17.9262 13.3016 17.9383 13.0757C17.9383 12.8112 17.9858 12.6213 18.0062 12.4721C18.0265 12.3229 18.0062 12.2483 18.0062 12.2143C18.0062 12.1804 17.8434 12.0584 17.172 12.1058H16.9753H16.7583C16.6884 12.113 16.6179 12.113 16.548 12.1058C16.1343 12.0448 15.9309 11.6311 15.7478 11.2716C15.5991 11.0075 15.4743 10.7306 15.3748 10.4443C15.2869 9.85612 15.4277 9.25669 15.7681 8.76911C15.8498 8.65161 15.948 8.54654 16.0597 8.45714C16.1316 8.40093 16.1896 8.32901 16.2293 8.24689C16.277 8.15437 16.3134 8.05646 16.3378 7.95527C16.356 7.85419 16.3942 7.75775 16.4501 7.67158C16.5059 7.58541 16.5785 7.51124 16.6633 7.45341C16.797 7.37086 16.9552 7.3373 17.1109 7.35846H17.4365C17.5596 7.35659 17.6822 7.34296 17.8027 7.31777H17.9587C18.0196 7.31297 18.0809 7.31297 18.1418 7.31777C18.3062 7.2211 18.4511 7.09459 18.5691 6.94476C18.6575 6.83764 18.7348 6.72174 18.7996 6.59888L19.4304 6.91763C19.344 7.08887 19.2394 7.2503 19.1184 7.39915C18.9828 7.55513 18.5216 8.07735 18.0808 8.02309H17.9316C17.7754 8.05559 17.6163 8.0715 17.4568 8.07057H17.0431V8.15195C17.0027 8.29927 16.9482 8.44236 16.8803 8.57921C16.8001 8.74484 16.6815 8.88896 16.5345 8.99969C16.4697 9.05258 16.4127 9.11421 16.3649 9.18281C16.1568 9.53622 16.0868 9.95412 16.1682 10.3561C16.1682 10.4239 16.3174 10.6816 16.4802 11.0343C16.5501 11.2057 16.6487 11.364 16.7718 11.5022H16.8397H16.9821H17.2262C17.4826 11.4527 17.747 11.463 17.9987 11.5324C18.2505 11.6018 18.4828 11.7284 18.6776 11.9024C18.7504 12.0158 18.7973 12.1439 18.8149 12.2776C18.8324 12.4112 18.8203 12.5471 18.7793 12.6755C18.7793 12.8112 18.7386 12.9875 18.7183 13.2316C18.7061 13.4236 18.7061 13.6161 18.7183 13.8081C18.7183 13.9437 18.7183 14.0523 18.7183 14.2421C18.625 14.804 18.4247 15.3428 18.1282 15.8291Z" fill="#4F4F4F" stroke="#4F4F4F" stroke-width="0.2"/>
<path d="M9.66435 10.6679C9.61728 10.6682 9.57066 10.6588 9.52746 10.6401C9.48426 10.6214 9.44542 10.5939 9.41342 10.5594C9.37778 10.5273 9.34383 10.4933 9.31169 10.4577C9.2296 10.4805 9.14284 10.4805 9.06076 10.4577C8.97486 10.4334 8.89587 10.3893 8.83017 10.3288C8.79503 10.2989 8.75313 10.2779 8.70809 10.2678C8.63763 10.2911 8.56154 10.2911 8.49107 10.2678C8.44832 10.25 8.4095 10.2239 8.37682 10.1911C8.34414 10.1583 8.31824 10.1194 8.30061 10.0765C8.28298 10.0337 8.27395 9.98784 8.27405 9.94153C8.27415 9.89521 8.28336 9.84937 8.30118 9.80662C8.32363 9.75679 8.3564 9.71229 8.39731 9.67605C8.43823 9.63981 8.48636 9.61265 8.53854 9.59638C8.65495 9.57326 8.77478 9.57334 8.89116 9.59662C9.00754 9.61989 9.11818 9.66591 9.21674 9.73202L9.28456 9.78628C9.3647 9.76618 9.44857 9.76618 9.52871 9.78628C9.67113 9.78628 9.74573 9.89479 9.93563 10.0915C9.98559 10.1408 10.0197 10.2039 10.0336 10.2727C10.0474 10.3416 10.0404 10.413 10.0135 10.4778C9.98654 10.5426 9.94085 10.5979 9.88227 10.6366C9.8237 10.6753 9.7549 10.6957 9.68469 10.6951L9.66435 10.6679Z" fill="#4F4F4F" stroke="#4F4F4F" stroke-width="0.2"/>
</g>
<defs>
<clipPath id="clip0_830_5744">
<rect width="20" height="20" fill="white"/>
</clipPath>
</defs>
</svg>
