<svg width="22" height="22" viewBox="0 0 22 22" fill="none" xmlns="http://www.w3.org/2000/svg">
<path fill-rule="evenodd" clip-rule="evenodd" d="M5.25136 8.60734C5.25005 8.557 5.24939 8.50688 5.24939 8.45655C5.24939 5.29364 7.81727 2.72583 10.9801 2.72583C13.5538 2.72583 15.7334 4.42602 16.4561 6.7632C16.6217 7.2032 16.7109 7.67124 16.7109 8.15634C16.7109 8.20172 16.7101 8.24696 16.7086 8.29198C16.7101 8.34669 16.7109 8.40155 16.7109 8.45655C16.7109 8.50688 16.7102 8.557 16.7089 8.60734C16.8256 12.8772 11.693 18.4435 11.0167 19.1579V19.2345C11.0167 19.2345 11.0042 19.2216 10.9801 19.1963C10.9561 19.2216 10.9435 19.2345 10.9435 19.2345V19.1579C10.2666 18.4429 5.13495 12.8772 5.25136 8.60734Z" stroke="#4F4F4F" stroke-miterlimit="1.5" stroke-linecap="round" stroke-linejoin="round"/>
<path d="M10.9802 11.6498C12.5006 11.6498 13.7332 10.4173 13.7332 8.89682C13.7332 7.37637 12.5006 6.1438 10.9802 6.1438C9.45974 6.1438 8.22717 7.37637 8.22717 8.89682C8.22717 10.4173 9.45974 11.6498 10.9802 11.6498Z" stroke="#4F4F4F" stroke-miterlimit="1.5" stroke-linecap="round" stroke-linejoin="round"/>
</svg>
