<svg width="187" height="34" viewBox="0 0 187 34" fill="none" xmlns="http://www.w3.org/2000/svg">
<path fill-rule="evenodd" clip-rule="evenodd" d="M27.984 6.3576L28.9749 5.4235C25.8283 1.98844 21.4346 0 16.7288 0C7.48949 0 0 7.61146 0 17C0 26.3885 7.48949 34 16.7288 34C21.3985 34 25.7618 32.042 28.9038 28.653L27.9185 27.7129C25.0294 30.8292 21.0212 32.6278 16.7288 32.6278C8.23703 32.6278 1.35259 25.6312 1.35259 17C1.35259 8.36877 8.23703 1.3722 16.7288 1.3722C21.0544 1.3722 25.0906 3.19885 27.984 6.3576ZM10.337 11.2563L14.6319 22.6413H15.8182L20.1478 11.2739H20.217C20.1362 12.3866 20.0958 13.4173 20.0958 14.3661V22.6413H21.5678V9.79805H19.3684L15.3246 20.3924H15.2553L11.2462 9.79805H9.02942V22.6413H10.3889V14.4715C10.3889 13.2299 10.3485 12.1582 10.2677 11.2563H10.337ZM24.8583 13.0132H23.317L27.1443 22.694L26.6161 24.0644C26.1947 25.1888 25.4904 25.751 24.5033 25.751C24.1107 25.751 23.7557 25.7159 23.4382 25.6456V26.814C23.8654 26.9135 24.2984 26.9633 24.7371 26.9633C25.5222 26.9633 26.1846 26.7364 26.7244 26.2825C27.2641 25.8286 27.736 25.06 28.1401 23.9765L32.2186 13.0132H30.6773C29.3495 16.738 28.5659 18.9619 28.3263 19.6852C28.0867 20.4085 27.9294 20.9195 27.8544 21.2181H27.7851C27.6754 20.6618 27.3926 19.757 26.9365 18.5037L24.8583 13.0132ZM91.1481 13.5405C91.1481 14.8407 90.7108 15.8406 89.8362 16.5405C88.9616 17.2403 87.7104 17.5903 86.0825 17.5903H84.5931V22.6415H83.1211V9.79825H86.4029C89.5664 9.79825 91.1481 11.0457 91.1481 13.5405ZM84.5931 16.3077H85.918C87.2226 16.3077 88.1665 16.0939 88.7495 15.6664C89.3326 15.2389 89.6241 14.5537 89.6241 13.6108C89.6241 12.7616 89.3499 12.1291 88.8015 11.7133C88.253 11.2975 87.3987 11.0896 86.2384 11.0896H84.5931V16.3077ZM97.6103 12.8378C98.0317 12.8378 98.4098 12.8729 98.7446 12.9432L98.5455 14.296C98.1529 14.2082 97.8066 14.1642 97.5064 14.1642C96.7386 14.1642 96.082 14.4805 95.5364 15.113C94.9909 15.7455 94.7181 16.5332 94.7181 17.4761V22.6415H93.2807V13.0134H94.467L94.6316 14.7967H94.7008C95.053 14.1701 95.4773 13.6869 95.9737 13.3473C96.4702 13.0076 97.0157 12.8378 97.6103 12.8378ZM108.056 17.8187C108.056 19.3882 107.666 20.6137 106.887 21.4951C106.107 22.3765 105.031 22.8172 103.657 22.8172C102.808 22.8172 102.055 22.6151 101.397 22.211C100.739 21.8069 100.231 21.2271 99.8728 20.4716C99.5149 19.7162 99.336 18.8318 99.336 17.8187C99.336 16.2491 99.7227 15.0266 100.496 14.1511C101.27 13.2755 102.344 12.8378 103.717 12.8378C105.045 12.8378 106.1 13.2858 106.882 14.1818C107.665 15.0779 108.056 16.2901 108.056 17.8187ZM100.825 17.8187C100.825 19.0485 101.068 19.9856 101.553 20.6298C102.038 21.274 102.751 21.5961 103.691 21.5961C104.632 21.5961 105.347 21.2754 105.835 20.6342C106.322 19.9929 106.566 19.0544 106.566 17.8187C106.566 16.5947 106.322 15.665 105.835 15.0295C105.347 14.3941 104.627 14.0764 103.674 14.0764C102.733 14.0764 102.023 14.3897 101.544 15.0164C101.065 15.643 100.825 16.5771 100.825 17.8187ZM114.553 14.1467H112.137V22.6415H110.699V14.1467H109.002V13.4878L110.699 12.9607V12.4249C110.699 10.0589 111.718 8.87586 113.756 8.87586C114.258 8.87586 114.847 8.97835 115.522 9.18332L115.15 10.3517C114.596 10.1701 114.122 10.0794 113.73 10.0794C113.187 10.0794 112.786 10.2624 112.526 10.6284C112.267 10.9944 112.137 11.5815 112.137 12.3897V13.0134H114.553V14.1467ZM119.993 22.8172C118.59 22.8172 117.483 22.3838 116.672 21.517C115.861 20.6503 115.456 19.4468 115.456 17.9065C115.456 16.3545 115.832 15.1218 116.586 14.2082C117.339 13.2946 118.351 12.8378 119.621 12.8378C120.81 12.8378 121.751 13.2345 122.444 14.0281C123.136 14.8216 123.483 15.8685 123.483 17.1686V18.091H116.945C116.974 19.2213 117.255 20.0793 117.789 20.6649C118.323 21.2506 119.075 21.5434 120.045 21.5434C121.067 21.5434 122.077 21.3267 123.076 20.8933V22.1934C122.568 22.416 122.087 22.5756 121.634 22.6722C121.181 22.7688 120.634 22.8172 119.993 22.8172ZM119.603 14.0588C118.841 14.0588 118.234 14.3106 117.781 14.8143C117.327 15.318 117.06 16.0149 116.98 16.9051H121.941C121.941 15.9856 121.739 15.2814 121.335 14.7923C120.931 14.3033 120.354 14.0588 119.603 14.0588ZM131.755 20.0148C131.755 20.9109 131.426 21.6019 130.767 22.088C130.109 22.5741 129.186 22.8172 127.997 22.8172C126.738 22.8172 125.757 22.6151 125.052 22.211V20.8582C125.508 21.0924 125.998 21.2769 126.52 21.4116C127.043 21.5463 127.546 21.6136 128.031 21.6136C128.782 21.6136 129.359 21.4921 129.763 21.2491C130.167 21.006 130.369 20.6356 130.369 20.1378C130.369 19.763 130.209 19.4424 129.889 19.1759C129.568 18.9094 128.943 18.5947 128.014 18.2315C127.131 17.8977 126.503 17.6064 126.13 17.3575C125.758 17.1086 125.481 16.826 125.299 16.5098C125.117 16.1935 125.026 15.8158 125.026 15.3765C125.026 14.5918 125.341 13.9724 125.97 13.5186C126.6 13.0647 127.463 12.8378 128.559 12.8378C129.581 12.8378 130.58 13.0486 131.555 13.4702L131.045 14.6562C130.092 14.2579 129.229 14.0588 128.455 14.0588C127.774 14.0588 127.26 14.1672 126.914 14.3839C126.568 14.6005 126.395 14.8992 126.395 15.2799C126.395 15.5376 126.46 15.7572 126.589 15.9387C126.719 16.1203 126.929 16.2931 127.217 16.457C127.506 16.621 128.06 16.8582 128.88 17.1686C130.005 17.5844 130.766 18.0031 131.161 18.4248C131.557 18.8465 131.755 19.3765 131.755 20.0148ZM139.914 20.0148C139.914 20.9109 139.585 21.6019 138.927 22.088C138.269 22.5741 137.345 22.8172 136.156 22.8172C134.897 22.8172 133.916 22.6151 133.212 22.211V20.8582C133.668 21.0924 134.157 21.2769 134.68 21.4116C135.202 21.5463 135.706 21.6136 136.191 21.6136C136.941 21.6136 137.518 21.4921 137.922 21.2491C138.326 21.006 138.529 20.6356 138.529 20.1378C138.529 19.763 138.368 19.4424 138.048 19.1759C137.728 18.9094 137.103 18.5947 136.173 18.2315C135.29 17.8977 134.662 17.6064 134.29 17.3575C133.918 17.1086 133.64 16.826 133.459 16.5098C133.277 16.1935 133.186 15.8158 133.186 15.3765C133.186 14.5918 133.5 13.9724 134.13 13.5186C134.759 13.0647 135.622 12.8378 136.719 12.8378C137.741 12.8378 138.739 13.0486 139.715 13.4702L139.204 14.6562C138.251 14.2579 137.388 14.0588 136.615 14.0588C135.934 14.0588 135.42 14.1672 135.074 14.3839C134.727 14.6005 134.554 14.8992 134.554 15.2799C134.554 15.5376 134.619 15.7572 134.749 15.9387C134.879 16.1203 135.088 16.2931 135.377 16.457C135.665 16.621 136.219 16.8582 137.039 17.1686C138.165 17.5844 138.925 18.0031 139.321 18.4248C139.716 18.8465 139.914 19.3765 139.914 20.0148ZM143.389 22.6415H141.951V13.0134H143.389V22.6415ZM141.83 10.4044C141.83 10.0706 141.911 9.82607 142.073 9.67087C142.234 9.51568 142.436 9.43808 142.679 9.43808C142.91 9.43808 143.109 9.51714 143.276 9.67527C143.444 9.83339 143.527 10.0764 143.527 10.4044C143.527 10.7324 143.444 10.9769 143.276 11.1379C143.109 11.299 142.91 11.3795 142.679 11.3795C142.436 11.3795 142.234 11.299 142.073 11.1379C141.911 10.9769 141.83 10.7324 141.83 10.4044ZM154.328 17.8187C154.328 19.3882 153.938 20.6137 153.159 21.4951C152.379 22.3765 151.303 22.8172 149.929 22.8172C149.08 22.8172 148.327 22.6151 147.669 22.211C147.011 21.8069 146.503 21.2271 146.145 20.4716C145.787 19.7162 145.608 18.8318 145.608 17.8187C145.608 16.2491 145.995 15.0266 146.768 14.1511C147.542 13.2755 148.616 12.8378 149.99 12.8378C151.317 12.8378 152.372 13.2858 153.154 14.1818C153.937 15.0779 154.328 16.2901 154.328 17.8187ZM147.097 17.8187C147.097 19.0485 147.34 19.9856 147.825 20.6298C148.31 21.274 149.023 21.5961 149.964 21.5961C150.905 21.5961 151.619 21.2754 152.107 20.6342C152.594 19.9929 152.838 19.0544 152.838 17.8187C152.838 16.5947 152.594 15.665 152.107 15.0295C151.619 14.3941 150.899 14.0764 149.946 14.0764C149.005 14.0764 148.295 14.3897 147.816 15.0164C147.337 15.643 147.097 16.5771 147.097 17.8187ZM163.041 22.6415V16.4131C163.041 15.6283 162.865 15.0427 162.513 14.6562C162.161 14.2697 161.61 14.0764 160.859 14.0764C159.866 14.0764 159.139 14.3487 158.677 14.8934C158.215 15.438 157.984 16.337 157.984 17.5903V22.6415H156.547V13.0134H157.716L157.95 14.3311H158.019C158.313 13.8568 158.726 13.4893 159.257 13.2287C159.788 12.9681 160.38 12.8378 161.032 12.8378C162.175 12.8378 163.036 13.1174 163.613 13.6767C164.19 14.236 164.479 15.1305 164.479 16.3604V22.6415H163.041ZM172.967 22.6415L172.681 21.271H172.612C172.139 21.8743 171.667 22.2827 171.196 22.4965C170.726 22.7103 170.139 22.8172 169.434 22.8172C168.493 22.8172 167.756 22.5712 167.222 22.0792C166.688 21.5873 166.421 20.8875 166.421 19.9797C166.421 18.0353 167.954 17.0163 171.019 16.9226L172.63 16.8699V16.2726C172.63 15.5171 172.469 14.9593 172.149 14.5991C171.829 14.2389 171.316 14.0588 170.612 14.0588C169.821 14.0588 168.926 14.3048 167.928 14.7967L167.486 13.6811C167.954 13.4234 168.466 13.2214 169.023 13.0749C169.58 12.9285 170.139 12.8553 170.699 12.8553C171.83 12.8553 172.668 13.1101 173.214 13.6196C173.76 14.1291 174.032 14.9461 174.032 16.0705V22.6415H172.967ZM169.72 21.6136C170.615 21.6136 171.318 21.3648 171.829 20.867C172.339 20.3692 172.595 19.6722 172.595 18.7762V17.9065L171.157 17.968C170.014 18.009 169.19 18.1891 168.685 18.5083C168.18 18.8274 167.928 19.3238 167.928 19.9973C167.928 20.5244 168.085 20.9255 168.4 21.2008C168.714 21.476 169.154 21.6136 169.72 21.6136ZM178.131 22.6415H176.693V8.97249H178.131V22.6415ZM187 20.0148C187 20.9109 186.671 21.6019 186.013 22.088C185.355 22.5741 184.431 22.8172 183.242 22.8172C181.983 22.8172 181.002 22.6151 180.298 22.211V20.8582C180.754 21.0924 181.243 21.2769 181.766 21.4116C182.288 21.5463 182.792 21.6136 183.277 21.6136C184.027 21.6136 184.604 21.4921 185.008 21.2491C185.412 21.006 185.615 20.6356 185.615 20.1378C185.615 19.763 185.454 19.4424 185.134 19.1759C184.814 18.9094 184.189 18.5947 183.259 18.2315C182.376 17.8977 181.748 17.6064 181.376 17.3575C181.004 17.1086 180.726 16.826 180.545 16.5098C180.363 16.1935 180.272 15.8158 180.272 15.3765C180.272 14.5918 180.586 13.9724 181.216 13.5186C181.845 13.0647 182.708 12.8378 183.805 12.8378C184.827 12.8378 185.825 13.0486 186.801 13.4702L186.29 14.6562C185.337 14.2579 184.474 14.0588 183.701 14.0588C183.02 14.0588 182.506 14.1672 182.16 14.3839C181.813 14.6005 181.64 14.8992 181.64 15.2799C181.64 15.5376 181.705 15.7572 181.835 15.9387C181.965 16.1203 182.174 16.2931 182.463 16.457C182.751 16.621 183.305 16.8582 184.125 17.1686C185.251 17.5844 186.011 18.0031 186.407 18.4248C186.802 18.8465 187 19.3765 187 20.0148ZM36.4959 9.68138H39.5902L44.8403 22.5081H41.2007L40.2418 20.0497H35.6714L34.7651 22.5081H31.1921L36.4959 9.68138ZM37.9887 13.6197L36.6373 17.3219H39.3102L37.9887 13.6197ZM79.4626 15.5616C79.5756 16.0086 79.633 16.4617 79.633 16.9083V22.5081H76.456V17.545C76.456 17.309 76.4363 17.0801 76.3974 16.8648C76.3596 16.6579 76.2974 16.4739 76.2131 16.3185C76.1325 16.171 76.0222 16.0568 75.8763 15.9697C75.7317 15.8839 75.5431 15.8403 75.3162 15.8403C75.0863 15.8403 74.8834 15.8852 74.7135 15.9738C74.5436 16.063 74.3997 16.1876 74.2869 16.344C74.1699 16.5052 74.0811 16.6939 74.0227 16.9054C73.9627 17.1205 73.9323 17.3475 73.9323 17.5804V22.5081H70.7553V13.3955H73.8277V14.324C73.8848 14.251 73.9463 14.1785 74.0121 14.1069C74.1896 13.9145 74.4011 13.7471 74.6406 13.6097C74.8766 13.4749 75.136 13.3634 75.4119 13.2782C75.6927 13.1918 75.9947 13.1479 76.3097 13.1479C76.9124 13.1479 77.434 13.2607 77.8604 13.4831C78.2853 13.7047 78.6338 13.996 78.8965 14.3491C79.1571 14.6997 79.3475 15.1075 79.4626 15.5616ZM45.6007 22.5081V9.68137H48.8127V22.5081H45.6007ZM64.0893 13.1124C66.7238 13.1124 68.8596 15.2791 68.8596 17.9519C68.8596 20.6246 66.7238 22.7913 64.0893 22.7913C61.4547 22.7913 59.319 20.6246 59.319 17.9519C59.319 15.2791 61.4547 13.1124 64.0893 13.1124ZM65.994 17.9519C65.994 16.8847 65.1411 16.0195 64.0893 16.0195C63.0373 16.0195 62.1845 16.8847 62.1845 17.9519C62.1845 19.0191 63.0373 19.8842 64.0893 19.8842C65.1411 19.8842 65.994 19.0191 65.994 17.9519ZM55.2868 19.8841C55.9691 19.8841 56.5657 19.519 56.9022 18.9722L58.7584 21.2691C57.8885 22.2057 56.6553 22.7912 55.2868 22.7912C52.6522 22.7912 50.5165 20.6245 50.5165 17.9518C50.5165 15.279 52.6522 13.1123 55.2868 13.1123C56.6659 13.1123 57.9076 13.707 58.7787 14.6562L56.8772 16.89C56.5365 16.366 55.9518 16.0194 55.2868 16.0194C54.2347 16.0194 53.382 16.8847 53.382 17.9518C53.382 19.019 54.2347 19.8841 55.2868 19.8841Z" fill="white"/>
</svg>
