<svg width="24" height="24" viewBox="0 0 24 24" fill="none" xmlns="http://www.w3.org/2000/svg">
<path fill-rule="evenodd" clip-rule="evenodd" d="M12.1167 0.5C5.76612 0.5 0.616669 5.64945 0.616669 12C0.616669 18.3506 5.76612 23.5 12.1167 23.5C18.4672 23.5 23.6167 18.3506 23.6167 12C23.6167 5.64945 18.4705 0.5 12.1167 0.5ZM13.1518 21.573C12.7481 22.0417 12.3966 22.198 12.1167 22.198C11.8367 22.198 11.4852 22.0417 11.0816 21.573C10.6812 21.1043 10.2906 20.3915 9.95208 19.4508C9.61355 18.5133 9.33362 17.3838 9.14158 16.1241H15.0918C14.8997 17.3838 14.6198 18.5133 14.2813 19.4508C13.9427 20.3915 13.5521 21.1076 13.1518 21.573ZM8.98208 14.8221C8.89419 13.927 8.84211 12.983 8.84211 12C8.84211 11.017 8.89419 10.0763 8.98208 9.17789H15.2513C15.3424 10.073 15.3912 11.017 15.3912 12C15.3912 12.983 15.3391 13.9237 15.2513 14.8221H8.98208ZM1.91868 12C1.91868 11.0202 2.05864 10.0763 2.31579 9.17789H7.67356C7.58893 10.0828 7.53685 11.0267 7.53685 12C7.53685 12.9733 7.58568 13.9172 7.67356 14.8221H2.31579C2.05864 13.927 1.91868 12.9798 1.91868 12ZM11.0816 2.42697C11.4852 1.95825 11.8367 1.80201 12.1167 1.80201C12.3966 1.80201 12.7481 1.95825 13.1518 2.42697C13.5521 2.8957 13.9427 3.60855 14.2813 4.54925C14.6198 5.4867 14.8997 6.61619 15.0918 7.87588H9.14158C9.33362 6.61619 9.61355 5.4867 9.95208 4.54925C10.2906 3.60855 10.6812 2.8957 11.0816 2.42697ZM16.5598 9.17789H21.9175C22.1747 10.073 22.3147 11.0202 22.3147 12C22.3147 12.9798 22.1747 13.9237 21.9175 14.8221H16.5598C16.6444 13.9172 16.6965 12.9733 16.6965 12C16.6965 11.0267 16.6444 10.0828 16.5598 9.17789ZM21.4456 7.87588H16.4068C16.2017 6.4632 15.8958 5.18072 15.5084 4.10657C15.2285 3.33513 14.903 2.65157 14.5254 2.08845C17.6274 2.84036 20.1761 5.01146 21.4456 7.87588ZM9.70795 2.09171C9.33362 2.65157 9.00487 3.33838 8.72493 4.10982C8.33433 5.18398 8.03161 6.46646 7.82655 7.87914H2.79102C4.05723 5.01146 6.60591 2.84362 9.70795 2.09171ZM2.79102 16.1241H7.8298C8.03487 17.5368 8.34084 18.8193 8.72819 19.8934C9.00812 20.6649 9.33362 21.3484 9.71121 21.9083C6.60591 21.1596 4.05723 18.9885 2.79102 16.1241ZM14.5254 21.9115C14.8997 21.3517 15.2285 20.6649 15.5084 19.8934C15.899 18.8193 16.2017 17.5368 16.4068 16.1241H21.4456C20.1761 18.9885 17.6274 21.1596 14.5254 21.9115Z" fill="white"/>
</svg>
