<svg width="32" height="30" viewBox="0 0 32 30" fill="none" xmlns="http://www.w3.org/2000/svg">
<path fill-rule="evenodd" clip-rule="evenodd" d="M19.1457 3.64788C17.4561 2.52085 15.4702 1.92028 13.4391 1.92213C10.7216 1.93693 8.1197 3.02368 6.19895 4.94618C4.2782 6.86869 3.19383 9.47158 3.18152 12.1891C3.18152 14.2202 3.7839 16.2056 4.91247 17.8942C6.04104 19.5828 7.64508 20.8987 9.52168 21.6755C11.3983 22.4523 13.4631 22.6551 15.455 22.2582C17.4468 21.8613 19.2762 20.8825 20.7117 19.4457C22.1472 18.0089 23.1243 16.1786 23.5194 14.1864C23.9145 12.1942 23.7098 10.1295 22.9313 8.25363C22.1528 6.37774 20.8354 4.7749 19.1457 3.64788ZM6.66722 2.05424C8.67172 0.714881 11.0284 0 13.4391 0C16.6719 0 19.7723 1.28421 22.0582 3.57012C24.3441 5.85603 25.6283 8.95638 25.6283 12.1891C25.6283 14.5999 24.9134 16.9566 23.5741 18.9611C22.2347 20.9656 20.331 22.5279 18.1037 23.4504C15.8765 24.373 13.4256 24.6144 11.0612 24.1441C8.6967 23.6738 6.52481 22.5129 4.82012 20.8082C3.11544 19.1035 1.95454 16.9316 1.48422 14.5671C1.0139 12.2027 1.25528 9.75184 2.17785 7.52456C3.10042 5.29729 4.66273 3.3936 6.66722 2.05424ZM24.0342 21.4436L30.9445 28.4008C31.0313 28.4882 31.1001 28.5919 31.1468 28.7059C31.1936 28.8199 31.2174 28.942 31.217 29.0652C31.2165 29.1884 31.1918 29.3103 31.1443 29.4239C31.0967 29.5376 31.0273 29.6408 30.9398 29.7276C30.8524 29.8144 30.7487 29.8831 30.6348 29.9298C30.5208 29.9766 30.3987 30.0004 30.2755 30C30.1523 29.9996 30.0304 29.9749 29.9167 29.9273C29.8031 29.8798 29.6999 29.8103 29.6131 29.7229L22.7028 22.7657L24.0342 21.4436Z" fill="white"/>
</svg>
