<svg width="20" height="20" viewBox="0 0 20 20" fill="none" xmlns="http://www.w3.org/2000/svg">
<path d="M9.9818 17.9429C14.3788 17.9429 17.9432 14.3784 17.9432 9.98143C17.9432 5.58447 14.3788 2.02002 9.9818 2.02002C5.58484 2.02002 2.02039 5.58447 2.02039 9.98143C2.02039 14.3784 5.58484 17.9429 9.9818 17.9429Z" stroke="#4F4F4F" stroke-miterlimit="1.5" stroke-linecap="round" stroke-linejoin="round"/>
<path d="M9.98187 11.0641C10.5796 11.0641 11.0641 10.5796 11.0641 9.98187C11.0641 9.38418 10.5796 8.89966 9.98187 8.89966C9.38418 8.89966 8.89966 9.38418 8.89966 9.98187C8.89966 10.5796 9.38418 11.0641 9.98187 11.0641Z" fill="#4F4F4F"/>
<path d="M15.2688 9.98168L10.008 9.98179" stroke="#4F4F4F" stroke-width="0.8" stroke-miterlimit="1.5" stroke-linecap="round" stroke-linejoin="round"/>
<path d="M10.0227 8.89989L10.0226 5.57726" stroke="#4F4F4F" stroke-miterlimit="1.5" stroke-linecap="round" stroke-linejoin="round"/>
</svg>
