<svg width="24" height="24" viewBox="0 0 24 24" fill="none" xmlns="http://www.w3.org/2000/svg">
<path fill-rule="evenodd" clip-rule="evenodd" d="M12.1167 0.5C5.76615 0.5 0.616699 5.64945 0.616699 12C0.616699 18.3506 5.76615 23.5 12.1167 23.5C18.4673 23.5 23.6167 18.3506 23.6167 12C23.6167 5.64945 18.4705 0.5 12.1167 0.5ZM13.1518 21.573C12.7482 22.0417 12.3966 22.198 12.1167 22.198C11.8368 22.198 11.4852 22.0417 11.0816 21.573C10.6812 21.1043 10.2906 20.3915 9.95211 19.4508C9.61359 18.5133 9.33365 17.3838 9.14161 16.1241H15.0918C14.8997 17.3838 14.6198 18.5133 14.2813 19.4508C13.9428 20.3915 13.5522 21.1076 13.1518 21.573ZM8.98211 14.8221C8.89423 13.927 8.84214 12.983 8.84214 12C8.84214 11.017 8.89423 10.0763 8.98211 9.17789H15.2513C15.3424 10.073 15.3913 11.017 15.3913 12C15.3913 12.983 15.3392 13.9237 15.2513 14.8221H8.98211ZM1.91871 12C1.91871 11.0202 2.05867 10.0763 2.31582 9.17789H7.67359C7.58896 10.0828 7.53688 11.0267 7.53688 12C7.53688 12.9733 7.58571 13.9172 7.67359 14.8221H2.31582C2.05867 13.927 1.91871 12.9798 1.91871 12ZM11.0816 2.42697C11.4852 1.95825 11.8368 1.80201 12.1167 1.80201C12.3966 1.80201 12.7482 1.95825 13.1518 2.42697C13.5522 2.8957 13.9428 3.60855 14.2813 4.54925C14.6198 5.4867 14.8997 6.61619 15.0918 7.87588H9.14161C9.33365 6.61619 9.61359 5.4867 9.95211 4.54925C10.2906 3.60855 10.6812 2.8957 11.0816 2.42697ZM16.5598 9.17789H21.9176C22.1747 10.073 22.3147 11.0202 22.3147 12C22.3147 12.9798 22.1747 13.9237 21.9176 14.8221H16.5598C16.6444 13.9172 16.6965 12.9733 16.6965 12C16.6965 11.0267 16.6444 10.0828 16.5598 9.17789ZM21.4456 7.87588H16.4068C16.2018 6.4632 15.8958 5.18072 15.5084 4.10657C15.2285 3.33513 14.903 2.65157 14.5254 2.08845C17.6275 2.84036 20.1761 5.01146 21.4456 7.87588ZM9.70798 2.09171C9.33365 2.65157 9.0049 3.33838 8.72496 4.10982C8.33436 5.18398 8.03164 6.46646 7.82658 7.87914H2.79106C4.05726 5.01146 6.60594 2.84362 9.70798 2.09171ZM2.79106 16.1241H7.82983C8.0349 17.5368 8.34087 18.8193 8.72822 19.8934C9.00815 20.6649 9.33365 21.3484 9.71124 21.9083C6.60594 21.1596 4.05726 18.9885 2.79106 16.1241ZM14.5254 21.9115C14.8997 21.3517 15.2285 20.6649 15.5084 19.8934C15.899 18.8193 16.2018 17.5368 16.4068 16.1241H21.4456C20.1761 18.9885 17.6275 21.1596 14.5254 21.9115Z" fill="white"/>
</svg>
