<svg width="81" height="34" viewBox="0 0 81 34" fill="none" xmlns="http://www.w3.org/2000/svg">
<path fill-rule="evenodd" clip-rule="evenodd" d="M28.4644 6.3576L29.4722 5.4235C26.2716 1.98844 21.8025 0 17.0159 0C7.61805 0 0 7.61146 0 17C0 26.3885 7.61805 34 17.0159 34C21.7658 34 26.204 32.042 29.4 28.653L28.3978 27.7129C25.459 30.8292 21.3821 32.6278 17.0159 32.6278C8.37843 32.6278 1.3758 25.6312 1.3758 17C1.3758 8.36877 8.37843 1.3722 17.0159 1.3722C21.4158 1.3722 25.5213 3.19885 28.4644 6.3576ZM10.5144 11.2563L14.883 22.6413H16.0897L20.4936 11.2739H20.5641C20.4819 12.3866 20.4408 13.4173 20.4408 14.3661V22.6413H21.9381V9.79805H19.7009L15.5877 20.3924H15.5172L11.4392 9.79805H9.18442V22.6413H10.5672V14.4715C10.5672 13.2299 10.5261 12.1582 10.4439 11.2563H10.5144ZM25.285 13.0132H23.7172L27.6103 22.694L27.073 24.0644C26.6444 25.1888 25.928 25.751 24.9239 25.751C24.5246 25.751 24.1635 25.7159 23.8406 25.6456V26.814C24.2751 26.9135 24.7155 26.9633 25.1617 26.9633C25.9603 26.9633 26.6341 26.7364 27.1831 26.2825C27.7321 25.8286 28.2121 25.06 28.6232 23.9765L32.7716 13.0132H31.2039C29.8533 16.738 29.0562 18.9619 28.8125 19.6852C28.5689 20.4085 28.4089 20.9195 28.3325 21.2181H28.2621C28.1505 20.6618 27.8628 19.757 27.3989 18.5037L25.285 13.0132ZM40.2698 9.68149H37.1224L31.7276 22.5082H35.3618L36.2838 20.0498H40.9326L41.9079 22.5082H45.61L40.2698 9.68149ZM37.2662 17.322L38.6408 13.6199L39.985 17.322H37.2662ZM81 16.9084C81 16.4618 80.9416 16.0087 80.8267 15.5617C80.7096 15.1076 80.5159 14.6998 80.2508 14.3493C79.9836 13.9961 79.6291 13.7048 79.1969 13.4832C78.7633 13.2608 78.2326 13.148 77.6197 13.148C77.2992 13.148 76.992 13.1919 76.7064 13.2783C76.4258 13.3636 76.1619 13.475 75.9219 13.6098C75.6782 13.7472 75.4632 13.9146 75.2826 14.107C75.2157 14.1786 75.1531 14.2511 75.095 14.3241V13.3956H71.9698V22.5082H75.2014V17.5805C75.2014 17.3477 75.2323 17.1206 75.2933 16.9055C75.3528 16.694 75.4431 16.5053 75.5621 16.3441C75.6769 16.1877 75.8232 16.0631 75.996 15.9739C76.1688 15.8854 76.3752 15.8404 76.6091 15.8404C76.8399 15.8404 77.0317 15.884 77.1788 15.9698C77.3272 16.0569 77.4394 16.1711 77.5214 16.3187C77.6071 16.474 77.6704 16.658 77.7088 16.8649C77.7484 17.0802 77.7684 17.3091 77.7684 17.5451V22.5082H81V16.9084ZM46.3835 9.68148V22.5082H49.6506V9.68148H46.3835ZM70.0416 17.952C70.0416 15.2792 67.8692 13.1125 65.1894 13.1125C62.5097 13.1125 60.3373 15.2792 60.3373 17.952C60.3373 20.6247 62.5097 22.7914 65.1894 22.7914C67.8692 22.7914 70.0416 20.6247 70.0416 17.952ZM65.1894 16.0196C66.2593 16.0196 67.1269 16.8849 67.1269 17.952C67.1269 19.0192 66.2593 19.8843 65.1894 19.8843C64.1193 19.8843 63.252 19.0192 63.252 17.952C63.252 16.8849 64.1193 16.0196 65.1894 16.0196ZM57.879 18.9724C57.5367 19.5191 56.9298 19.8843 56.2358 19.8843C55.1657 19.8843 54.2983 19.0192 54.2983 17.9519C54.2983 16.8848 55.1657 16.0195 56.2358 16.0195C56.9122 16.0195 57.507 16.3661 57.8536 16.8901L59.7877 14.6563C58.9016 13.7071 57.6387 13.1125 56.2358 13.1125C53.556 13.1125 51.3836 15.2792 51.3836 17.9519C51.3836 20.6246 53.556 22.7913 56.2358 22.7913C57.6278 22.7913 58.8822 22.2059 59.767 21.2693L57.879 18.9724Z" fill="white"/>
</svg>
