<svg width="31" height="30" viewBox="0 0 31 30" fill="none" xmlns="http://www.w3.org/2000/svg">
<path d="M28.25 28.6364C28.25 29.3901 27.6288 30 26.8611 30C26.0934 30 25.4722 29.3901 25.4722 28.6364C25.4722 23.3656 21.1184 19.0909 15.75 19.0909C10.3816 19.0909 6.02778 23.3656 6.02778 28.6364C6.02778 29.3901 5.40658 30 4.63889 30C3.8712 30 3.25 29.3901 3.25 28.6364C3.25 21.8581 8.84625 16.3636 15.75 16.3636C22.6537 16.3636 28.25 21.8581 28.25 28.6364ZM15.75 15C11.5318 15 8.11111 11.6415 8.11111 7.5C8.11111 3.3585 11.5318 0 15.75 0C19.9682 0 23.3889 3.3585 23.3889 7.5C23.3889 11.6415 19.9682 15 15.75 15ZM15.75 12.2727C18.4356 12.2727 20.6111 10.1367 20.6111 7.5C20.6111 4.86327 18.4356 2.72727 15.75 2.72727C13.0644 2.72727 10.8889 4.86327 10.8889 7.5C10.8889 10.1367 13.0644 12.2727 15.75 12.2727Z" fill="white"/>
</svg>
