<svg width="31" height="30" viewBox="0 0 31 30" fill="none" xmlns="http://www.w3.org/2000/svg">
<path fill-rule="evenodd" clip-rule="evenodd" d="M26.2345 8.86397H22.5114V6.13672C22.5114 3.94479 21.3506 1.918 19.4653 0.821985C17.58 -0.274029 15.2582 -0.273961 13.373 0.821985C11.4878 1.91793 10.3269 3.94476 10.3269 6.13672V8.86397H6.26538C5.70482 8.86397 5.25 9.32208 5.25 9.88669V24.8866C5.25 26.2422 5.78544 27.5433 6.73736 28.5019C7.68927 29.4605 8.98097 30 10.3267 30H22.1728C23.5187 30 24.8104 29.4607 25.7621 28.5019C26.7139 27.5431 27.2495 26.2421 27.2495 24.8866V9.88669C27.2495 9.32208 26.7947 8.86397 26.2341 8.86397H26.2345ZM12.3575 6.13657C12.3575 3.87674 14.1754 2.0457 16.419 2.0457C18.6627 2.0457 20.4806 3.87674 20.4806 6.13657V8.86383H12.3575V6.13657ZM25.2191 24.8865C25.2191 26.5804 23.8547 27.9547 22.173 27.9547H10.3269C8.64516 27.9547 7.28077 26.5804 7.28077 24.8865V10.9093H10.3269V14.6593C10.3269 15.2239 10.7817 15.682 11.3423 15.682C11.9028 15.682 12.3576 15.2239 12.3576 14.6593V10.9093H20.4807V14.6593C20.4807 15.2239 20.9355 15.682 21.496 15.682C22.0566 15.682 22.5114 15.2239 22.5114 14.6593V10.9093H25.2191V24.8865Z" fill="white"/>
</svg>
